<svg width="615" height="1117" viewBox="0 0 615 1117" fill="none" xmlns="http://www.w3.org/2000/svg">
<path fill-rule="evenodd" clip-rule="evenodd" d="M531.451 0C536.652 2.90396 542.079 5.49373 547.708 7.73471C569.432 16.3809 592.109 19.7384 615 20.7253V23C591.873 22.0149 568.938 18.6024 546.905 9.83812C539.949 7.06463 533.303 3.75863 527 0H531.451Z" fill="#580A88"/>
<path fill-rule="evenodd" clip-rule="evenodd" d="M453.936 0C476.812 25.98 507.5 46.0619 542.575 57.0601C566.144 64.4507 590.481 68.0487 615 69.7845V72C590.289 70.2642 565.728 66.6339 541.924 59.1692C505.803 47.8386 474.271 26.9918 451 0H453.936Z" fill="#580A88"/>
<path fill-rule="evenodd" clip-rule="evenodd" d="M402.692 0C403.332 0.90576 403.94 1.81239 404.591 2.71815C439.531 51.2737 491.018 85.0838 553.467 100.492C573.836 105.512 594.738 109.032 615 111.772V114C594.578 111.259 573.496 107.709 552.945 102.645C489.97 87.1102 438.057 53.0005 402.807 4.0091C401.848 2.6771 400.93 1.34335 400 0H402.692Z" fill="#580A88"/>
<path opacity="0.7" fill-rule="evenodd" clip-rule="evenodd" d="M27.3868 1302.89C38.8541 1299.04 50.7062 1295.05 62.2505 1291.37C117.75 1273.71 180.566 1250.96 223.597 1204.33C256.077 1169.13 264.684 1122.01 273.012 1076.42C275.285 1063.94 277.636 1051.06 280.444 1038.63C287.308 1008.22 295.766 977.731 306.304 945.42C309.538 935.466 312.604 925.065 315.561 914.989C321.926 893.331 328.513 870.953 337.632 850.323C351.342 819.36 378.143 810.752 399.967 806.696C427.45 801.614 456.579 795.463 483.955 781.347C526.709 759.287 557.706 721.148 581.495 661.331C593.656 630.74 604.547 599.049 615 568V595.386C607.034 618.568 598.707 641.878 589.663 664.62C565.383 725.696 532.112 766.461 487.97 789.228C459.525 803.897 429.682 810.219 401.559 815.43C371.907 820.918 355.195 832.427 345.683 853.932C336.787 874.029 330.286 896.13 324.008 917.508C321.028 927.628 317.942 938.116 314.664 948.175C304.211 980.224 295.83 1010.46 289.029 1040.6C286.262 1052.86 283.936 1065.65 281.67 1078.02C273.118 1124.85 264.266 1173.28 230.046 1210.37C185.552 1258.59 121.478 1281.82 64.8964 1299.82C53.4291 1303.48 41.6094 1307.45 30.1753 1311.3C29.4799 1311.53 28.7758 1311.76 28.0822 1312H0C9.18256 1309.01 18.3118 1305.94 27.3868 1302.89Z" fill="#580A88"/>
<path fill-rule="evenodd" clip-rule="evenodd" d="M615 163C610.273 161.665 605.557 160.349 600.904 159.057C551.293 145.221 499.996 130.916 455.358 103.257C413.121 77.0739 381.001 41.2477 350 0H352.764C383.315 40.4989 415.031 75.6525 456.509 101.365C500.881 128.864 552.03 143.125 601.49 156.918C605.939 158.157 610.466 159.42 615 160.693V163Z" fill="#580A88"/>
<path fill-rule="evenodd" clip-rule="evenodd" d="M97.5428 53.0506C101.865 34.8784 108.716 16.975 117.55 0H120.014C111.019 17.1132 104.053 35.2005 99.6782 53.573C86.6064 108.451 93.1384 166.982 120.846 243.353C145.419 311.062 173.395 371.217 204.008 422.151C229.157 463.996 260.226 497.87 293.122 533.733C301.626 543.016 310.428 552.61 319.041 562.277C327.98 572.298 336.88 582.649 345.49 592.66C357.537 606.675 369.999 621.149 382.717 634.964C385.182 637.622 387.691 640.422 390.26 643.284C406.511 661.36 424.928 681.838 446.759 689.593C452.732 691.71 458.836 692.799 464.917 692.799H464.928C508.335 692.777 543.844 638.318 557.095 614.902C580.985 572.683 598.611 526.767 615 481.526V487.967C599.156 531.446 581.977 575.396 559.005 616.002C542.306 645.507 507.876 695 464.928 695H464.917C458.591 695 452.232 693.889 446.032 691.688C423.667 683.741 405.06 663.038 388.639 644.77C386.066 641.916 383.561 639.129 381.106 636.469C368.356 622.635 355.893 608.139 343.825 594.123C335.226 584.112 326.328 573.772 317.406 563.752C308.807 554.105 300.005 544.512 291.501 535.24C258.53 499.292 227.385 465.341 202.13 423.304C171.444 372.242 143.404 311.959 118.777 244.111C90.9183 167.315 84.3662 108.388 97.5428 53.0506Z" fill="#580A88"/>
<path fill-rule="evenodd" clip-rule="evenodd" d="M615 235C613.503 233.162 611.901 231.358 610.147 229.606C589.258 208.777 562.008 196.163 535.656 183.966C532.011 182.266 528.355 180.579 524.731 178.87C479.135 157.399 420.038 126.692 367.303 79.4793C358.227 71.3504 349.321 62.2722 339.905 52.6584C320.778 33.1648 301.236 13.246 279 0H283.245C304.412 13.3308 323.129 32.4062 341.464 51.1096C350.86 60.691 359.745 69.7387 368.767 77.8238C421.3 124.854 480.214 155.455 525.671 176.862C529.285 178.571 532.931 180.257 536.587 181.946C563.109 194.23 590.53 206.93 611.697 228.035C612.861 229.191 613.952 230.376 615 231.581V235Z" fill="#580A88"/>
<path fill-rule="evenodd" clip-rule="evenodd" d="M130.834 64.1623C138.942 40.0298 154.633 15.7791 176.016 0H179.841C157.549 15.3941 141.217 40.1891 132.918 64.8668C118.081 108.979 120.228 160.31 139.465 221.802C157.378 279.02 185.523 339.722 220.878 397.336C252.014 448.082 291.47 487.544 341.13 531.185C343.34 533.13 345.625 535.16 347.997 537.254C379.668 565.33 423.045 603.788 465.31 603.788H465.322C472.009 603.788 478.523 602.784 484.677 600.816C526.761 587.335 551.008 544.828 570.95 500.889C589.931 459.062 603.292 414.804 615 370.724V379.229C603.774 420.764 590.861 462.343 572.947 501.817C552.802 546.205 528.247 589.184 485.34 602.933C478.972 604.963 472.243 606 465.322 606C465.31 606 465.31 606 465.31 606C422.211 606 378.472 567.23 346.544 538.919C344.173 536.825 341.887 534.797 339.688 532.863C289.869 489.083 250.283 449.48 219.008 398.502C183.557 340.736 155.326 279.866 137.371 222.466C117.974 160.513 115.838 108.721 130.834 64.1623Z" fill="#580A88"/>
<path fill-rule="evenodd" clip-rule="evenodd" d="M232.494 59.4597C257.809 59.4597 287.909 73.0407 321.957 99.8195C372.683 139.719 426.689 174.293 477.491 205.714C480.545 207.605 483.641 209.496 486.747 211.385C506.778 223.567 527.48 236.177 543.005 253.763C564.786 278.448 570.22 310.458 570.936 332.966C571.127 339.189 571.075 345.992 570.754 353.763C561.635 411.644 547.424 470.689 505.645 509.574C490.623 523.54 472.994 530.63 453.253 530.63H453.242C416.865 530.63 379.497 507.055 354.542 489.319C270.909 429.892 206.942 333.926 174.431 219.126C163.028 178.852 151.434 121.045 182.268 84.1358C195.957 67.7664 212.849 59.4597 232.494 59.4597ZM453.242 532.84H453.253C473.572 532.84 491.702 525.559 507.131 511.196C549.412 471.852 563.75 412.382 572.942 353.977C573.275 346.022 573.327 339.168 573.135 332.889C572.398 310.018 566.868 277.466 544.649 252.289C528.912 234.459 508.049 221.763 487.879 209.484C484.783 207.595 481.697 205.714 478.643 203.826C427.895 172.434 373.954 137.904 323.302 98.0701C288.868 70.9808 258.312 57.2397 232.494 57.2397C212.176 57.2397 194.708 65.8141 180.583 82.7039C149.074 120.427 160.776 178.97 172.317 219.734C204.957 335.015 269.223 431.407 353.272 491.134C378.46 509.04 416.247 532.84 453.242 532.84Z" fill="#580A88"/>
<path opacity="0.8" fill-rule="evenodd" clip-rule="evenodd" d="M517.593 375.696C513.364 401.756 501.044 447.381 465.916 462.521C456.231 466.696 445.822 468.81 434.963 468.81C405.538 468.81 371.99 453.605 335.249 423.604C275.746 375.033 229.535 291.26 217.504 210.178C213.734 184.789 213.575 151.978 234.212 139.763C240.641 135.963 248.06 134.03 256.282 134.03C284.363 134.03 317.622 156.237 339.627 170.929C342.104 172.585 344.464 174.155 346.686 175.618C359.434 183.989 372.608 192.112 385.356 199.959C411.175 215.859 437.857 232.3 461.912 251.467C479.178 265.219 493.527 281.672 507.086 303.218C519.238 322.545 518.49 346.727 517.763 370.111C517.711 371.978 517.645 373.848 517.593 375.696ZM434.963 477.682H434.975C447.016 477.671 458.601 475.323 469.386 470.667C508.508 453.808 521.864 404.63 526.338 376.815L526.39 376.229C526.445 374.296 526.497 372.353 526.561 370.388C527.297 346.814 528.12 320.099 514.527 298.478C500.423 276.055 485.445 258.908 467.378 244.516C442.908 225.019 415.99 208.438 389.96 192.4C377.264 184.574 364.131 176.493 351.501 168.196C349.29 166.745 346.952 165.185 344.496 163.541C321.605 148.262 287.022 125.167 256.282 125.167C246.471 125.167 237.545 127.506 229.749 132.118C209.783 143.938 202.737 170.641 208.79 211.481C221.133 294.634 268.593 380.607 329.708 430.489C368.049 461.805 403.465 477.682 434.963 477.682Z" fill="#580A88"/>
<path fill-rule="evenodd" clip-rule="evenodd" d="M315.774 234.085C337.311 234.085 366.756 249.171 377.852 254.852C404.234 268.367 464.752 306.262 456.786 366.053C448.778 395.287 428.182 401.449 412.316 401.449C397.167 401.459 379.197 395.682 363 385.603C342.082 372.589 324.123 353.603 311.067 330.69C304.338 318.882 283.134 278.086 292.605 248.777C295.755 239.029 303.548 234.085 315.774 234.085ZM412.316 403.668C428.952 403.668 450.53 397.22 458.933 366.492C467.122 305.151 405.653 266.607 378.844 252.877C367.633 247.133 337.844 231.874 315.774 231.874C302.481 231.874 293.982 237.33 290.501 248.093C280.753 278.267 302.322 319.789 309.155 331.79C322.393 355.023 340.608 374.285 361.845 387.493C378.374 397.774 396.77 403.668 412.316 403.668Z" fill="#580A88"/>
<path fill-rule="evenodd" clip-rule="evenodd" d="M321.285 1272.36C349.759 1258.69 365.642 1243.19 371.253 1223.58C377.955 1200.18 371.564 1175.37 365.386 1151.41C364.701 1148.79 364.029 1146.18 363.377 1143.58C344.918 1070.01 348.841 1010.2 375.379 960.736C401.02 912.937 445.163 883.36 487.852 854.763C531.246 825.696 576.115 795.645 601.372 746.459C606.588 736.316 611.055 725.763 615 715V721.237C611.537 730.186 607.7 738.964 603.328 747.485C577.817 797.184 532.699 827.382 489.082 856.619C446.606 885.066 402.699 914.476 377.315 961.785C351.053 1010.74 347.194 1070.02 365.513 1143.04C366.166 1145.63 366.84 1148.23 367.511 1150.85C373.477 1173.99 380.242 1200.19 373.381 1224.18C365.75 1250.83 340.535 1265.57 322.238 1274.35C288.259 1290.64 252.475 1302.43 216.701 1312H208C246.361 1302.07 284.881 1289.81 321.285 1272.36Z" fill="#580A88"/>
<path fill-rule="evenodd" clip-rule="evenodd" d="M446.648 983.27C468.514 937.098 510.157 907.565 550.423 879.011C572.725 863.188 595.445 847.065 615 828V831.029C595.692 849.581 573.495 865.341 551.695 880.802C511.655 909.208 470.254 938.574 448.636 984.213C403.881 1078.72 501.004 1165.73 565.273 1223.3L573.068 1230.33C587.607 1243.39 602.009 1257.24 615 1272.55V1276C601.646 1259.99 586.709 1245.55 571.603 1231.97L563.808 1224.97C499.048 1166.95 401.188 1079.27 446.648 983.27Z" fill="#580A88"/>
<path fill-rule="evenodd" clip-rule="evenodd" d="M510.154 1024.23C512.316 984.044 537.82 954.607 559.8 933.462C576.383 917.518 594.892 902.642 615 889V891.697C595.468 905.041 577.469 919.531 561.311 935.073C539.629 955.956 514.455 984.937 512.347 1024.36C510.431 1060.14 527.068 1090.48 541.364 1109.61C562.023 1137.27 588.87 1159.61 615 1181.14V1184C588.326 1162.05 560.79 1139.3 539.618 1110.93C525.1 1091.5 508.208 1060.7 510.154 1024.23Z" fill="#580A88"/>
</svg>
