<svg width="128" height="128" viewBox="0 0 128 128" fill="none" xmlns="http://www.w3.org/2000/svg">
<path d="M0 24C0 10.7452 10.7452 0 24 0H104C117.255 0 128 10.7452 128 24V104C128 117.255 117.255 128 104 128H24C10.7452 128 0 117.255 0 104V24Z" fill="#1C51FE"/>
<path d="M31.62 48.52H19.04V73H27.54V56.816L39.168 73H51.748V48.52H43.248V64.704L31.62 48.52Z" fill="white"/>
<path d="M53.8291 48.52V73H62.3291V66.37H76.9491V59.23H62.3291V55.66H78.9891V48.52H53.8291Z" fill="white"/>
<path d="M80.7411 55.66H91.1111V73H99.6111V55.66H109.981V48.52H80.7411V55.66Z" fill="white"/>
</svg>
